<?xml version="1.0" encoding="utf-8"?>
<!-- Generator: Adobe Illustrator 21.1.0, SVG Export Plug-In . SVG Version: 6.00 Build 0)  -->
<svg version="1.1" id="Layer_1" xmlns="http://www.w3.org/2000/svg" xmlns:xlink="http://www.w3.org/1999/xlink" x="0px" y="0px"
	 viewBox="0 0 274.7 194.7" style="enable-background:new 0 0 274.7 194.7;" xml:space="preserve">
<g id="comp_x5F_91-discord">
	<g>
		<path d="M232.5,29.3C201,5.6,171.1,6.3,171.1,6.3L168,9.8c37.2,11.4,54.4,27.8,54.4,27.8C170.5,9.1,109.5,9.1,59.2,31.2
			c-8.1,3.7-12.9,6.3-12.9,6.3s18.1-17.3,57.5-28.6l-2.2-2.6c0,0-29.9-0.7-61.4,22.9c0,0-31.5,57-31.5,127.4
			c0,0,18.4,31.7,66.7,33.2c0,0,8.1-9.8,14.6-18.1C62.2,163.5,51.7,146,51.7,146c3.2,2.2,8.5,5.2,9,5.5
			c36.9,20.7,89.3,27.4,136.4,7.6c7.6-2.8,16.2-7,25.1-12.9c0,0-10.9,17.9-39.6,26c6.6,8.3,14.4,17.7,14.4,17.7
			c48.3-1.5,66.9-33.2,66.9-33.2C264,86.3,232.5,29.3,232.5,29.3z M95.4,136.4c-12.2,0-22.3-10.9-22.3-24.3
			c0-13.3,9.8-24.3,22.3-24.3c12.5,0,22.5,10.9,22.3,24.3C117.7,125.4,107.9,136.4,95.4,136.4z M175.2,136.4
			c-12.2,0-22.3-10.9-22.3-24.3c0-13.3,9.8-24.3,22.3-24.3c12.5,0,22.3,10.9,22.3,24.3C197.5,125.4,187.7,136.4,175.2,136.4z"/>
	</g>
</g>
<g id="Layer_1_1_">
</g>
</svg>
