<?xml version="1.0" ?><!DOCTYPE svg  PUBLIC '-//W3C//DTD SVG 1.1//EN'  'http://www.w3.org/Graphics/SVG/1.1/DTD/svg11.dtd'><svg height="512px" style="enable-background:new 0 0 512 512;" version="1.1" viewBox="0 0 512 512" width="512px" xml:space="preserve" xmlns="http://www.w3.org/2000/svg" xmlns:xlink="http://www.w3.org/1999/xlink"><g id="comp_x5F_144-gitlab"><g><path d="    M120.548,48.424c-2.785-7.996-14.104-7.996-16.979,0L52.813,205.457h118.583C171.306,205.457,120.548,48.424,120.548,48.424z" style="fill:none;stroke:#000000;stroke-width:20;stroke-linecap:round;stroke-linejoin:round;stroke-miterlimit:10;"/><path d="    M26.849,284.512c-2.336,7.188,0.27,15.183,6.379,19.765l222.703,165.296L52.722,205.457L26.849,284.512z" style="fill:none;stroke:#000000;stroke-width:20;stroke-linecap:round;stroke-linejoin:round;stroke-miterlimit:10;"/><polygon points="    171.306,205.457 256.021,469.572 340.735,205.457   " style="fill:none;stroke:#000000;stroke-width:20;stroke-linecap:round;stroke-linejoin:round;stroke-miterlimit:10;"/><path d="    M485.189,284.512l-25.872-79.055L256.021,469.572l222.703-165.296C484.92,299.694,487.436,291.699,485.189,284.512z" style="fill:none;stroke:#000000;stroke-width:20;stroke-linecap:round;stroke-linejoin:round;stroke-miterlimit:10;"/><path d="    M408.471,48.424c-2.785-7.996-14.104-7.996-16.979,0l-50.848,157.033h118.584L408.471,48.424z" style="fill:none;stroke:#000000;stroke-width:20;stroke-linecap:round;stroke-linejoin:round;stroke-miterlimit:10;"/></g></g><g id="Layer_1"/></svg>