<?xml version="1.0" encoding="UTF-8" standalone="no"?>
<svg
   xmlns:dc="http://purl.org/dc/elements/1.1/"
   xmlns:cc="http://creativecommons.org/ns#"
   xmlns:rdf="http://www.w3.org/1999/02/22-rdf-syntax-ns#"
   xmlns:svg="http://www.w3.org/2000/svg"
   xmlns="http://www.w3.org/2000/svg"
   xmlns:sodipodi="http://sodipodi.sourceforge.net/DTD/sodipodi-0.dtd"
   xmlns:inkscape="http://www.inkscape.org/namespaces/inkscape"
   height="512px"
   id="Layer_1"
   style="enable-background:new 0 0 512 512;"
   version="1.1"
   viewBox="0 0 512 512"
   width="512px"
   xml:space="preserve"
   sodipodi:docname="youtube.svg"
   inkscape:version="0.92.4 (5da689c313, 2019-01-14)"><metadata
     id="metadata11"><rdf:RDF><cc:Work
         rdf:about=""><dc:format>image/svg+xml</dc:format><dc:type
           rdf:resource="http://purl.org/dc/dcmitype/StillImage" /></cc:Work></rdf:RDF></metadata><defs
     id="defs9" /><sodipodi:namedview
     pagecolor="#ffffff"
     bordercolor="#666666"
     borderopacity="1"
     objecttolerance="10"
     gridtolerance="10"
     guidetolerance="10"
     inkscape:pageopacity="0"
     inkscape:pageshadow="2"
     inkscape:window-width="793"
     inkscape:window-height="480"
     id="namedview7"
     showgrid="false"
     inkscape:zoom="0.65186406"
     inkscape:cx="286.15805"
     inkscape:cy="300.14031"
     inkscape:window-x="886"
     inkscape:window-y="296"
     inkscape:window-maximized="0"
     inkscape:current-layer="Layer_1" /><g
     id="g4"
     style="fill:#869494;fill-opacity:1"><path
       d="M508.6,148.8c0-45-33.1-81.2-74-81.2C379.2,65,322.7,64,265,64c-3,0-6,0-9,0s-6,0-9,0c-57.6,0-114.2,1-169.6,3.6   c-40.8,0-73.9,36.4-73.9,81.4C1,184.6-0.1,220.2,0,255.8C-0.1,291.4,1,327,3.4,362.7c0,45,33.1,81.5,73.9,81.5   c58.2,2.7,117.9,3.9,178.6,3.8c60.8,0.2,120.3-1,178.6-3.8c40.9,0,74-36.5,74-81.5c2.4-35.7,3.5-71.3,3.4-107   C512.1,220.1,511,184.5,508.6,148.8z M207,353.9V157.4l145,98.2L207,353.9z"
       id="path2"
       style="fill:#869494;fill-opacity:1" /></g></svg>